<?xml version="1.0" standalone="no"?>
<!DOCTYPE svg PUBLIC "-//W3C//DTD SVG 20010904//EN"
 "http://www.w3.org/TR/2001/REC-SVG-20010904/DTD/svg10.dtd">
<svg version="1.0" xmlns="http://www.w3.org/2000/svg"
 width="1024.000000pt" height="1024.000000pt" viewBox="0 0 1024.000000 1024.000000"
 preserveAspectRatio="xMidYMid meet">

<g transform="translate(0.000000,1024.000000) scale(0.100000,-0.100000)"
fill="#000000" stroke="none">
<path d="M4800 9293 c-306 -22 -697 -102 -1004 -204 -640 -214 -1141 -522
-1611 -993 -367 -368 -611 -714 -827 -1171 -400 -850 -504 -1878 -283 -2800
144 -601 418 -1154 820 -1655 114 -143 367 -405 500 -520 574 -493 1250 -818
1987 -954 289 -53 389 -61 763 -61 308 1 370 3 520 24 497 67 901 188 1310
393 548 274 1019 658 1407 1148 408 516 696 1136 823 1775 63 318 70 397 70
835 0 422 -4 472 -61 785 -291 1615 -1484 2890 -3068 3280 -260 64 -452 94
-741 115 -128 9 -496 11 -605 3z m760 -318 c457 -52 838 -162 1245 -359 548
-266 1007 -640 1381 -1126 257 -334 476 -753 602 -1155 128 -404 182 -780 182
-1263 0 -223 -5 -291 -40 -559 -33 -245 -100 -508 -189 -743 -72 -187 -171
-400 -187 -400 -8 0 -58 22 -112 49 -365 183 -572 428 -662 784 -39 155 -50
245 -50 410 0 302 -31 560 -95 812 -76 297 -169 479 -255 500 -38 9 -107 -42
-179 -133 -77 -96 -232 -325 -267 -395 -15 -29 -27 -53 -28 -54 -2 -2 -45 7
-97 18 -73 17 -127 22 -244 22 -164 0 -229 -11 -363 -63 -113 -43 -206 -110
-392 -280 -173 -159 -229 -195 -340 -220 -62 -15 -111 -43 -160 -91 -70 -71
-95 -176 -88 -376 6 -160 33 -261 94 -353 79 -119 156 -180 374 -295 79 -42
162 -89 184 -104 63 -44 135 -126 164 -189 25 -53 27 -67 27 -187 0 -124 -3
-140 -58 -360 -68 -274 -77 -331 -77 -495 0 -182 28 -332 96 -514 36 -95 143
-310 188 -377 20 -29 36 -57 36 -60 0 -12 -291 -88 -430 -113 -250 -45 -417
-60 -680 -60 -407 0 -713 44 -1078 154 -134 41 -365 123 -392 140 -11 7 -14
46 -14 217 0 211 20 380 59 503 16 52 19 34 5 -25 -32 -130 -50 -297 -49 -465
1 -96 4 -186 8 -200 6 -21 26 -32 133 -73 264 -99 579 -178 848 -212 274 -35
748 -30 1025 11 170 25 498 101 534 123 9 6 3 23 -24 66 -54 84 -168 326 -203
430 -53 157 -74 283 -75 445 0 168 16 277 73 495 75 288 85 394 50 507 -11 35
-35 85 -53 111 -59 82 -110 118 -356 251 -194 104 -286 188 -356 323 -39 75
-55 143 -64 271 -9 125 0 238 24 313 19 56 95 145 140 165 25 11 -88 13 -705
11 l-735 -2 3 -30 c5 -50 60 -264 97 -382 151 -476 163 -807 44 -1178 -33
-106 -33 -102 -16 -108 6 -2 4 -3 -5 -2 -13 2 -26 -21 -56 -99 -22 -55 -62
-153 -90 -216 -57 -131 -108 -264 -148 -395 -15 -49 -29 -84 -31 -78 -8 22 82
274 179 503 159 376 206 533 230 762 23 220 -9 443 -113 786 -103 342 -113
398 -114 612 0 206 9 253 68 350 71 118 118 122 347 31 238 -96 346 -131 450
-147 400 -60 674 92 955 531 80 125 110 199 100 243 -3 16 -27 49 -53 74 -41
40 -338 289 -639 537 -57 47 -115 102 -130 123 -26 39 -27 41 -27 216 -1 204
-2 208 -99 362 -46 73 -156 249 -213 342 -2 4 44 64 104 135 202 240 307 385
318 439 26 133 -253 80 -664 -126 -46 -23 -86 -39 -89 -36 -3 3 40 75 96 161
105 159 140 225 141 259 1 84 -157 75 -395 -24 -98 -41 -395 -187 -485 -238
-338 -192 -593 -371 -779 -547 -178 -169 -321 -416 -372 -644 -6 -26 -33 -76
-68 -125 -80 -112 -263 -409 -411 -666 -149 -260 -191 -326 -288 -454 -127
-167 -283 -318 -441 -426 l-61 -41 0 38 c0 21 7 101 15 178 70 660 294 1279
656 1815 395 585 980 1067 1637 1349 365 157 767 259 1137 290 72 6 148 13
170 15 86 9 537 -4 665 -19z m-1311 -1222 c76 -45 195 -154 255 -232 47 -62
174 -269 230 -374 l36 -69 0 -168 c0 -180 8 -220 56 -293 13 -20 131 -126 262
-234 130 -108 251 -210 269 -226 l31 -29 -19 -42 c-24 -53 -24 -131 -1 -178
11 -20 41 -62 67 -92 45 -53 47 -58 34 -82 -25 -48 -164 -180 -227 -217 -134
-78 -255 -100 -410 -73 -107 19 -201 53 -435 160 -306 140 -374 161 -498 155
-218 -11 -387 -212 -462 -549 -17 -78 -21 -129 -21 -280 -1 -229 16 -318 114
-632 112 -356 143 -523 143 -763 0 -291 -86 -569 -260 -840 -97 -149 -292
-378 -278 -325 71 269 85 360 85 542 0 126 -26 306 -58 398 -24 69 -73 168
-120 242 -38 59 -54 73 -45 39 8 -33 -16 -333 -38 -461 -11 -69 -36 -183 -55
-255 -99 -374 -134 -523 -154 -650 -12 -77 -24 -141 -25 -143 -6 -6 -194 155
-294 252 -264 258 -496 568 -691 924 -267 489 -409 978 -455 1558 l-6 81 91
53 c287 165 560 440 765 770 32 52 117 202 187 334 138 255 286 508 365 621
47 68 50 70 98 76 183 23 383 116 577 269 45 36 242 224 437 417 196 194 363
353 371 353 9 0 44 -17 79 -37z m2545 -2612 c44 -12 81 -22 82 -24 2 -2 -8
-38 -22 -81 -93 -293 -59 -555 94 -735 115 -135 270 -218 458 -246 l41 -6 17
-82 c75 -347 334 -631 809 -886 l97 -53 -21 -38 c-29 -51 -184 -263 -278 -380
-101 -126 -348 -374 -491 -492 -200 -167 -411 -310 -625 -425 -108 -59 -350
-173 -365 -173 -18 0 -172 217 -219 310 -95 186 -124 305 -124 515 0 168 14
264 68 470 66 250 80 399 50 540 -31 146 -125 285 -259 380 -70 49 -121 76
-296 154 -173 78 -231 113 -288 176 -78 85 -114 182 -114 313 -1 63 3 74 43
141 43 72 44 73 145 123 120 59 231 140 374 275 122 114 175 153 268 195 105
48 169 58 332 54 107 -3 166 -9 224 -25z m-2097 -1483 c-3 -8 -6 -5 -6 6 -1
11 2 17 5 13 3 -3 4 -12 1 -19z m-344 -165 c-7 -2 -19 -2 -25 0 -7 3 -2 5 12
5 14 0 19 -2 13 -5z m1340 -180 c-7 -2 -19 -2 -25 0 -7 3 -2 5 12 5 14 0 19
-2 13 -5z m54 1 c-3 -3 -12 -4 -19 -1 -8 3 -5 6 6 6 11 1 17 -2 13 -5z m96 -1
c-7 -2 -19 -2 -25 0 -7 3 -2 5 12 5 14 0 19 -2 13 -5z m194 1 c-3 -3 -12 -4
-19 -1 -8 3 -5 6 6 6 11 1 17 -2 13 -5z m-2139 -1091 c-10 -2 -26 -2 -35 0
-10 3 -2 5 17 5 19 0 27 -2 18 -5z m1669 -489 c-3 -3 -12 -4 -19 -1 -8 3 -5 6
6 6 11 1 17 -2 13 -5z"/>
<path d="M6535 7444 c-244 -38 -461 -230 -542 -481 -21 -64 -26 -99 -27 -193
-1 -135 16 -198 92 -345 95 -183 527 -796 571 -810 10 -3 26 -3 35 1 20 8 193
235 318 419 128 187 259 407 291 488 87 216 51 455 -96 654 -77 104 -221 201
-361 245 -60 18 -222 31 -281 22z m251 -407 c133 -68 198 -237 144 -379 -45
-121 -150 -200 -275 -206 -223 -12 -383 205 -304 413 28 75 113 164 179 188
69 25 191 18 256 -16z"/>
<path d="M7740 4652 c0 -179 18 -325 55 -462 32 -116 95 -263 148 -342 60 -90
181 -213 280 -284 84 -59 324 -191 333 -182 11 12 118 250 163 365 119 304
185 597 226 1001 l6 62 -605 0 -606 -1 0 -157z"/>
<path d="M4411 6935 c-101 -58 -159 -123 -146 -165 16 -51 164 -150 224 -150
47 0 55 27 55 166 0 98 -3 126 -17 148 -22 33 -58 34 -116 1z"/>
<path d="M6087 4810 c-44 -51 -94 -153 -103 -207 -6 -37 -4 -43 20 -58 21 -14
39 -16 90 -11 139 14 216 53 216 110 0 43 -53 149 -91 181 -47 39 -90 34 -132
-15z"/>
</g>
</svg>
